<svg width="13px" height="21px" viewBox="0 0 13 21" version="1.1" xmlns="http://www.w3.org/2000/svg" xmlns:xlink="http://www.w3.org/1999/xlink">
  <g id="White" stroke="none" stroke-width="1" fill="none" fill-rule="evenodd">
    <g id="White-Home" transform="translate(-1321.000000, -276.000000)">
      <g id="Group-15" transform="translate(1314.000000, 273.000000)">
        <g id="Group-3" transform="translate(8.231707, 4.893815)" fill="#121212">
          <path d="M9.18958898,9.57656778 L9.18958898,11.1758709 C9.18958898,13.236836 7.43396483,14.9075782 5.26829268,14.9075782 C3.10262054,14.9075782 1.34699639,13.236836 1.34699639,11.1758709 L1.34699639,9.57656778 L0.226626016,9.57656778 L0.226626016,11.1758709 C0.227844372,13.6185187 2.15725421,15.6703892 4.7081075,15.9417943 L4.7081075,17.0399824 L2.46736676,17.0399824 L2.46736676,18.1061845 L8.06921861,18.1061845 L8.06921861,17.0399824 L5.82847787,17.0399824 L5.82847787,15.9417943 C8.37933116,15.6703892 10.308741,13.6185187 10.3099593,11.1758709 L10.3099593,9.57656778 L9.18958898,9.57656778 Z M5.26829268,13.8413761 C6.81520136,13.8413761 8.06921861,12.6479888 8.06921861,11.1758709 L8.06921861,7.60095802 C8.06921861,6.12884014 6.81520136,4.9354528 5.26829268,4.9354528 C3.72138401,4.9354528 2.46736676,6.12884014 2.46736676,7.60095802 L2.46736676,11.1758709 C2.46736676,12.6479888 3.72138401,13.8413761 5.26829268,13.8413761 Z M3.58773713,7.60095802 C3.58773713,6.71768729 4.34014748,6.00165489 5.26829268,6.00165489 C6.19643789,6.00165489 6.94884824,6.71768729 6.94884824,7.60095802 L6.94884824,11.1758709 C6.94884824,12.0591416 6.19643789,12.7751741 5.26829268,12.7751741 C4.34014748,12.7751741 3.58773713,12.0591416 3.58773713,11.1758709 L3.58773713,7.60095802 Z" id="Fill"></path>
          <g id="noun-audio-1390796" transform="translate(5.268293, 2.520485) rotate(-90.000000) translate(-5.268293, -2.520485) translate(2.747808, -2.747808)" fill-rule="nonzero" stroke="#121212" stroke-width="0.3">
            <path d="M2.09561437,5.26837061 C2.09561437,6.72989613 1.26387295,8.02064797 0,8.78983091 L0.586791894,9.31160763 C1.9952736,8.40342104 2.91376859,6.93012788 2.91376859,5.26852648 C2.91376859,3.60692507 1.99539048,2.13334616 0.586791894,1.22518555 L0,1.74685836 C1.26387295,2.51601532 2.09561437,3.80687107 2.09561437,5.26857843 L2.09561437,5.26837061 Z" id="Path"></path>
            <path d="M1.9650019,0 L1.37581398,0.523699024 C3.09145416,1.55223767 4.22281535,3.29442015 4.22281535,5.26842257 C4.22281535,7.24237304 3.09145416,8.9844516 1.37581398,10.0128863 L1.9650019,10.5365854 C3.82434502,9.36782215 5.04096957,7.44218915 5.04096957,5.26842257 C5.04096957,3.09437024 3.82422814,1.16897103 1.9650019,0 Z" id="Path"></path>
          </g>
        </g>
      </g>
    </g>
  </g>
</svg>
