<?xml version="1.0" encoding="UTF-8"?>
<svg width="13px" height="13px" viewBox="0 0 13 13" version="1.1" xmlns="http://www.w3.org/2000/svg" xmlns:xlink="http://www.w3.org/1999/xlink">
    <title>Brand / Social / logo--facebook / 32</title>
    <g id="White" stroke="none" stroke-width="1" fill="none" fill-rule="evenodd">
        <g id="White-Article" transform="translate(-803.000000, -275.000000)" fill="#000000">
            <g id="Group-2" transform="translate(792.000000, 264.000000)">
                <g id="Brand-/-Social-/-logo--facebook-/-32" transform="translate(9.500000, 9.500000)">
                    <path d="M13.335,2 L2.665,2 C2.29886419,2.00272231 2.00272231,2.29886419 2,2.665 L2,13.335 C2.00272231,13.7011358 2.29886419,13.9972777 2.665,14 L8.41,14 L8.41,9.36 L6.85,9.36 L6.85,7.545 L8.41,7.545 L8.41,6.21 C8.41,4.66 9.355,3.815 10.745,3.815 C11.21,3.815 11.675,3.815 12.14,3.885 L12.14,5.5 L11.185,5.5 C10.43,5.5 10.285,5.86 10.285,6.385 L10.285,7.54 L12.085,7.54 L11.85,9.355 L10.285,9.355 L10.285,14 L13.335,14 C13.7011358,13.9972777 13.9972777,13.7011358 14,13.335 L14,2.665 C13.9972777,2.29886419 13.7011358,2.00272231 13.335,2 Z" id="Fill"></path>
                </g>
            </g>
        </g>
    </g>
</svg>