<?xml version="1.0" encoding="UTF-8"?>
<svg width="13px" height="13px" viewBox="0 0 13 13" version="1.1" xmlns="http://www.w3.org/2000/svg" xmlns:xlink="http://www.w3.org/1999/xlink">
    <title>Brand / Social / logo--linkedin / 32</title>
    <g id="White" stroke="none" stroke-width="1" fill="none" fill-rule="evenodd">
        <g id="White-Article" transform="translate(-898.000000, -275.000000)" fill="#000000">
            <g id="Group-2" transform="translate(792.000000, 264.000000)">
                <g id="Group-5-Copy-2" transform="translate(95.000000, 0.000000)">
                    <g id="Brand-/-Social-/-logo--linkedin-/-32" transform="translate(9.500000, 9.500000)">
                        <path d="M13.105,1.99998359 L2.895,1.99998359 C2.41112642,1.99709087 2.01358346,2.38130836 2,2.865 L2,13.1 C2.01092766,13.5848582 2.41005107,13.9706031 2.895,13.9650603 L13.105,13.9650603 C13.5899489,13.9706031 13.9890723,13.5848582 14,13.1 L14,2.865 C13.9864165,2.38130836 13.5888736,1.99709087 13.105,1.99998359 Z M5.555,12.205 L3.795,12.205 L3.795,6.5 L5.555,6.5 L5.555,12.205 Z M4.695,5.705 C4.13300775,5.70516397 3.67357467,5.2568283 3.66,4.695 C3.65010805,4.41758658 3.75597251,4.14854366 3.95225809,3.95225809 C4.14854366,3.75597251 4.41758658,3.65010805 4.695,3.66 C5.23740046,3.69776789 5.65810598,4.14878623 5.65810598,4.6925 C5.65810598,5.23621377 5.23740046,5.68723211 4.695,5.725 L4.695,5.705 Z M12.24,12.17 L10.5,12.17 L10.5,9.38 C10.5,8.715 10.5,7.85 9.57,7.85 C8.64,7.85 8.5,8.58 8.5,9.315 L8.5,12.14 L6.72,12.14 L6.72,6.5 L8.38,6.5 L8.38,7.25 L8.415,7.25 C8.7618465,6.64764107 9.41561257,6.28893757 10.11,6.32 C11.905,6.32 12.24,7.52 12.24,9.045 L12.24,12.17 Z" id="Fill"></path>
                    </g>
                </g>
            </g>
        </g>
    </g>
</svg>