<?xml version="1.0" encoding="UTF-8"?>
<svg width="12px" height="9px" viewBox="0 0 12 9" version="1.1" xmlns="http://www.w3.org/2000/svg" xmlns:xlink="http://www.w3.org/1999/xlink">
    <title>Brand / Social / logo--twitter / 32</title>
    <g id="White" stroke="none" stroke-width="1" fill="none" fill-rule="evenodd">
        <g id="White-Article" transform="translate(-851.000000, -277.000000)" fill="#000000">
            <g id="Group-2" transform="translate(792.000000, 264.000000)">
                <g id="Group-5-Copy" transform="translate(47.500000, 0.000000)">
                    <g id="Brand-/-Social-/-logo--twitter-/-32" transform="translate(9.500000, 9.500000)">
                        <path d="M5.96,12.47 C7.66595652,12.4807296 9.30515016,11.8077847 10.5114674,10.6014674 C11.7177847,9.39515016 12.3907296,7.75595652 12.38,6.05 C12.38,5.95 12.38,5.855 12.38,5.755 C12.8177964,5.43424437 13.19673,5.04008571 13.5,4.59 C13.0877587,4.77029773 12.651555,4.88987482 12.205,4.945 C12.6784553,4.66289017 13.0337001,4.21883414 13.205,3.695 C12.7637606,3.95972044 12.2799079,4.14581764 11.775,4.245 C11.0759209,3.50011241 9.96407705,3.31679292 9.06286941,3.79782712 C8.16166177,4.27886133 7.69518973,5.30463255 7.925,6.3 C6.11090096,6.21095618 4.42024109,5.35471876 3.275,3.945 C2.68248043,4.97339012 2.98853213,6.28504028 3.975,6.945 C3.62430619,6.9314745 3.28172635,6.83555214 2.975,6.665 L2.975,6.69 C2.96857854,7.7572232 3.70802649,8.68413683 4.75,8.915 C4.42381901,9.00273012 4.08214608,9.01639704 3.75,8.955 C4.04996975,9.860065 4.8867589,10.4786484 5.84,10.5 C5.04460556,11.140262 4.05604568,11.4926897 3.035,11.5 C2.85597659,11.4948187 2.67737358,11.479796 2.5,11.455 C3.53347758,12.113449 4.73460221,12.4605949 5.96,12.455" id="Fill"></path>
                    </g>
                </g>
            </g>
        </g>
    </g>
</svg>